<svg height="615" width="411" version="1.1" xmlns="http://www.w3.org/2000/svg"> <path d="M 70 339 L 70 339 L 69 339 L 69 339 L 69 340 L 68 342 L 67 347 L 67 351 L 67 357 L 67 360 L 67 366 L 66 374 L 65 382 L 64 390 L 64 400 L 64 409 L 64 421 L 64 429 L 64 436 L 64 448 L 63 455 L 63 462 L 63 469 L 63 475 L 62 481 L 62 486 L 63 494 L 63 500 L 63 506 L 63 514 L 62 519 L 62 524 L 62 529 L 62 533 L 62 538 L 63 544 L 63 549 L 63 553 L 63 559 L 63 564 L 64 568 L 64 572 L 64 576 L 64 580 L 65 584 L 66 588 L 67 590 L 67 591 L 67 594 L 67 597 L 67 598 L 67 599 L 67 598 L 67 594 L 66 591 L 66 591 M 68 468 L 68 468 L 70 469 L 72 469 L 74 469 L 77 469 L 82 469 L 90 468 L 96 468 L 104 467 L 111 466 L 117 465 L 123 464 L 130 463 L 137 462 L 144 461 L 154 461 L 161 461 L 169 460 L 180 459 L 188 459 L 195 458 L 202 458 L 208 458 L 215 457 L 221 457 L 230 457 L 237 456 L 243 456 L 253 456 L 259 455 L 265 455 L 270 455 L 276 455 L 281 455 L 290 454 L 295 453 L 301 453 L 308 452 L 314 452 L 320 452 L 325 452 L 330 451 L 334 451 L 339 451 L 345 450 L 349 450 L 353 450 L 357 449 L 360 449 L 364 449 L 368 448 L 371 448 L 373 448 L 375 448 L 378 448 L 381 448 L 383 448 L 386 448 L 388 448 L 389 448 L 390 448 L 392 448 L 395 448 L 397 447 L 398 447 L 398 447 L 399 447 L 399 446 L 397 445 L 397 445 M 370 467 L 370 467 L 369 468 L 367 469 L 365 472 L 364 475 L 364 481 L 365 485 L 367 488 L 369 490 L 369 490 M 390 473 L 390 472 L 389 471 L 387 471 L 385 471 L 385 472 L 384 475 L 385 476 L 387 478 L 390 479 L 391 480 L 391 480 L 391 481 L 391 482 L 389 483 L 388 485 L 386 486 L 384 485 L 384 485 M 400 461 L 400 461 L 407 460 L 411 462 L 411 464 L 411 464 M 407 460 L 407 460 L 409 460 L 410 462 L 411 464 L 411 464 M 396 462 L 396 462 L 397 461 L 397 461 L 400 461 L 408 464 L 410 473 L 409 482 L 405 487 L 400 492 L 397 493 L 397 493 M 174 449 L 175 449 L 175 449 L 175 450 L 174 452 L 174 455 L 174 457 L 175 462 L 176 465 L 176 465 L 175 465 L 175 465 M 184 447 L 184 447 L 185 447 L 185 447 L 185 447 L 185 447 L 185 448 L 185 450 L 185 453 L 185 458 L 186 461 L 186 465 L 186 468 L 185 468 L 185 468 L 185 468 M 187 456 L 187 456 L 188 456 L 188 457 L 188 457 L 189 458 L 189 458 L 190 459 L 191 460 L 191 461 L 192 462 L 192 463 L 193 464 L 193 465 L 194 466 L 196 468 L 197 469 L 198 471 L 199 473 L 200 474 L 200 475 L 200 476 L 201 477 L 201 479 L 202 480 L 203 481 L 203 482 L 204 483 L 205 483 L 206 484 L 206 484 L 206 484 L 206 484 L 207 484 L 207 484 L 208 484 L 208 484 L 208 484 L 208 484 L 208 484 L 209 483 L 209 483 L 210 482 L 211 480 L 211 478 L 212 476 L 212 474 L 213 472 L 213 470 L 214 468 L 214 466 L 215 465 L 215 463 L 216 460 L 217 458 L 217 455 L 218 454 L 218 452 L 218 450 L 219 448 L 219 446 L 220 444 L 221 442 L 221 440 L 222 438 L 223 435 L 224 433 L 224 432 L 224 431 L 225 429 L 225 427 L 226 425 L 227 423 L 227 422 L 227 421 L 229 419 L 229 417 L 230 415 L 230 414 L 231 413 L 232 411 L 233 409 L 233 408 L 234 407 L 235 405 L 235 404 L 235 404 L 236 402 L 237 401 L 237 400 L 238 399 L 239 397 L 240 396 L 240 394 L 242 392 L 242 390 L 242 389 L 243 388 L 244 386 L 245 384 L 245 383 L 246 381 L 247 379 L 248 378 L 249 376 L 250 375 L 250 374 L 250 373 L 251 372 L 251 371 L 253 369 L 254 368 L 254 366 L 255 365 L 256 364 L 256 363 L 257 361 L 258 360 L 259 359 L 259 358 L 260 357 L 260 356 L 261 355 L 261 354 L 261 353 L 262 351 L 262 350 L 262 349 L 263 348 L 263 347 L 264 346 L 264 346 L 266 344 L 267 343 L 268 342 L 269 341 L 270 340 L 271 339 L 273 338 L 274 337 L 275 336 L 276 336 L 276 336 L 277 335 L 277 335 L 278 335 L 278 335 L 279 335 L 279 335 L 280 334 L 281 334 L 281 334 L 282 334 L 282 334 L 282 334 L 282 334 L 283 334 L 283 334 L 284 334 L 285 334 L 286 334 L 287 334 L 287 335 L 287 335 L 287 335 L 288 335 L 288 335 L 288 335 L 289 335 L 289 335 L 289 335 L 289 335 L 289 335 L 289 335 M 289 333 L 290 334 L 291 334 L 291 334 L 292 334 L 293 335 L 294 335 L 295 336 L 297 337 L 298 337 L 301 339 L 302 340 L 304 342 L 307 343 L 309 345 L 310 347 L 312 348 L 314 351 L 316 353 L 318 355 L 320 358 L 321 360 L 322 362 L 323 363 L 324 364 L 324 366 L 325 367 L 327 370 L 328 372 L 330 373 L 332 377 L 333 378 L 335 380 L 336 382 L 338 385 L 340 385 L 341 387 L 342 388 L 343 390 L 346 393 L 347 394 L 348 395 L 349 397 L 350 398 L 350 400 L 350 401 L 351 401 L 351 402 L 352 403 L 353 404 L 354 405 L 355 406 L 355 407 L 356 408 L 357 409 L 358 410 L 359 411 L 360 411 L 360 412 L 361 413 L 361 414 L 362 414 L 362 415 L 363 416 L 363 416 L 363 417 L 364 417 L 364 418 L 365 418 L 365 419 L 366 420 L 366 420 L 366 421 L 367 422 L 368 423 L 369 425 L 370 425 L 370 426 L 370 426 L 370 426 L 371 427 L 371 427 L 371 427 L 371 427 L 371 428 L 372 428 L 372 429 L 373 429 L 373 430 L 374 430 L 374 430 L 374 431 L 374 431 L 374 432 L 374 432 L 374 433 L 375 434 L 376 434 L 376 435 L 376 436 L 377 436 L 377 436 L 377 436 L 378 437 L 378 437 L 380 439 L 381 440 L 382 441 L 383 442 L 384 442 L 384 443 L 384 443 L 384 443 L 385 443 L 385 443 L 385 443 L 384 442 L 384 441 L 384 441 M 215 500 L 215 500 L 214 501 L 214 503 L 214 506 L 214 509 L 214 513 L 214 516 L 214 519 L 214 519 L 215 519 L 215 518 L 214 516 L 213 512 L 212 508 L 212 504 L 211 501 L 211 499 L 212 499 L 212 499 L 212 498 L 211 499 L 209 501 L 208 504 L 207 505 L 207 506 L 207 507 L 207 507 L 209 503 L 210 502 L 211 501 L 215 500 L 217 500 L 220 501 L 222 503 L 224 503 L 224 503 M 206 542 L 206 544 L 207 547 L 208 550 L 208 551 L 208 551 L 208 551 L 208 551 M 202 535 L 202 535 L 201 535 L 202 536 L 202 536 L 203 536 L 203 537 L 202 537 L 201 536 L 201 536 M 216 541 L 216 541 L 218 544 L 220 548 L 220 550 L 220 552 L 220 553 L 220 553 L 220 549 L 220 546 L 220 544 L 222 542 L 225 540 L 227 543 L 227 546 L 227 548 L 227 550 L 227 549 L 227 549 M 232 538 L 232 538 L 232 539 L 233 541 L 234 546 L 235 549 L 235 550 L 234 548 L 234 548 M 232 527 L 232 527 L 232 527 L 233 528 L 232 529 L 231 528 L 230 527 L 230 527 M 244 527 L 244 527 L 245 530 L 246 533 L 247 537 L 248 541 L 250 544 L 250 546 L 251 547 L 251 546 L 251 546 M 244 538 L 244 538 L 245 538 L 249 537 L 253 536 L 255 534 L 255 534 M 259 534 L 261 538 L 262 541 L 263 543 L 263 545 L 261 545 L 261 545 L 261 545 M 261 524 L 261 524 L 259 524 L 259 524 L 260 524 L 261 525 L 261 525 M 278 531 L 278 531 L 277 530 L 275 529 L 274 531 L 273 535 L 274 538 L 275 541 L 277 542 L 278 543 L 280 541 L 281 537 L 281 534 L 281 533 L 281 533 L 281 534 L 281 536 L 287 541 L 289 540 L 293 537 L 295 534 L 295 530 L 294 522 L 293 516 L 292 514 L 291 514 L 290 517 L 290 522 L 296 536 L 299 539 L 302 541 L 302 541 M 248 571 L 248 571 L 246 570 L 244 571 L 243 572 L 242 575 L 242 577 L 243 579 L 244 580 L 247 580 L 248 578 L 250 576 L 251 569 L 251 563 L 249 556 L 248 551 L 248 552 L 248 555 L 248 562 L 250 567 L 253 574 L 255 577 L 258 578 L 260 577 L 262 574 L 262 574 M 265 566 L 265 566 L 266 568 L 266 572 L 267 575 L 268 575 L 268 575 L 268 575 M 264 556 L 264 556 L 267 555 L 268 555 L 268 556 L 268 556 L 268 557 L 266 558 L 265 558 L 264 557 L 264 557 M 279 564 L 279 564 L 279 569 L 280 574 L 282 579 L 284 586 L 283 589 L 283 589 M 278 568 L 278 566 L 280 564 L 283 563 L 286 562 L 288 562 L 288 564 L 287 569 L 286 570 L 283 571 L 283 571 M 174 528 L 173 527 L 173 528 L 174 532 L 177 548 L 181 563 L 185 577 L 190 602 L 191 614 L 190 615 L 190 615 M 173 524 L 173 524 L 172 523 L 175 523 L 182 522 L 221 515 L 246 510 L 272 506 L 312 500 L 335 495 L 337 494 L 337 493 L 338 493 L 339 493 L 341 495 L 341 495 L 342 497 L 343 499 L 345 505 L 350 527 L 352 537 L 355 546 L 358 553 L 362 564 L 363 573 L 363 574 L 363 575 L 363 576 L 362 577 L 357 580 L 352 581 L 341 583 L 330 584 L 317 585 L 292 588 L 275 592 L 258 595 L 243 598 L 223 603 L 218 605 L 215 605 L 211 605 L 211 605 M 196 607 L 199 607 L 204 606 L 212 604 L 218 602 L 223 600 L 223 600 M 284 349 L 284 349 L 284 351 L 285 351 L 285 353 L 286 354 L 286 355 L 285 356 L 285 356 M 287 377 L 287 377 L 287 379 L 287 381 L 287 384 L 286 387 L 286 387 M 290 408 L 290 408 L 291 410 L 291 411 L 291 413 L 291 415 L 291 416 L 291 418 L 291 418 M 294 432 L 294 435 L 294 437 L 294 438 L 294 439 L 294 439 M 276 466 L 276 466 L 276 470 L 275 472 L 273 474 L 272 476 L 272 477 L 273 475 L 273 475 L 274 474 L 274 474 L 274 474 L 275 474 L 276 476 L 278 476 L 279 477 L 280 477 L 282 477 L 283 477 L 283 476 L 283 476 M 286 468 L 286 468 L 286 470 L 286 473 L 287 478 L 287 481 L 287 484 L 286 485 L 286 485 M 298 472 L 299 472 L 301 471 L 303 470 L 303 469 L 303 469 M 318 459 L 318 459 L 318 459 L 317 461 L 315 463 L 314 466 L 314 471 L 315 474 L 319 476 L 321 476 L 322 476 L 322 474 L 322 471 L 321 470 L 318 470 L 314 471 L 314 471 L 314 472 L 314 472 M 336 462 L 336 462 L 336 462 L 335 463 L 335 464 L 334 466 L 334 467 L 338 470 L 341 472 L 342 474 L 341 476 L 340 477 L 338 477 L 335 477 L 334 476 L 334 476 M 59 332 L 59 332 L 60 331 L 61 330 L 62 327 L 63 322 L 65 319 L 69 315 L 71 323 L 73 328 L 75 332 L 76 336 L 76 340 L 76 340 M 16 547 L 27 548 L 36 548 L 40 547 L 42 547 L 42 547 M 16 548 L 16 548 L 15 547 L 13 545 L 13 543 L 18 535 L 24 538 L 26 540 L 26 539 L 26 538 L 26 535 L 33 529 L 36 530 L 42 540 L 43 543 L 39 547 L 39 547 M 13 523 L 14 522 L 20 521 L 28 521 L 38 523 L 40 524 L 40 524 M 29 511 L 29 511 L 32 513 L 35 514 L 40 513 L 41 511 L 41 507 L 34 504 L 30 504 L 27 507 L 28 510 L 28 511 L 28 511 M 29 493 L 29 494 L 28 495 L 31 497 L 32 498 L 33 498 L 39 495 L 40 491 L 37 489 L 28 492 L 28 493 L 28 493 M 28 468 L 28 469 L 28 472 L 29 475 L 30 478 L 35 482 L 40 475 L 37 470 L 23 467 L 13 466 L 5 466 L 0 466 L 1 466 L 9 466 L 38 467 L 43 467 L 43 467 M 14 416 L 14 417 L 14 420 L 19 425 L 24 429 L 34 430 L 41 427 L 40 415 L 18 407 L 15 408 L 11 416 L 11 417 L 13 418 L 13 418 M 22 401 L 22 401 L 31 397 L 38 393 L 42 392 L 44 391 L 43 391 L 43 391 M 26 388 L 26 388 L 29 392 L 33 395 L 41 401 L 43 404 L 43 404 M 20 377 L 20 377 L 25 376 L 34 378 L 37 377 L 39 376 L 34 370 L 34 370 M 24 367 L 24 367 L 28 367 L 34 368 L 40 370 L 48 372 L 52 374 L 54 379 L 51 382 L 51 382 M 26 351 L 26 351 L 23 352 L 22 356 L 33 361 L 37 359 L 37 357 L 35 355 L 26 350 L 24 348 L 29 350 L 34 351 L 46 352 L 50 353 L 53 355 L 55 356 L 54 363 L 51 365 L 51 365 M 32 341 L 34 340 L 35 338 L 33 335 L 30 334 L 21 334 L 20 334 L 21 338 L 23 341 L 39 342 L 42 339 L 41 337 L 41 337 M 22 322 L 23 322 L 29 322 L 33 323 L 39 324 L 41 325 L 41 326 L 39 326 L 27 323 L 24 320 L 24 314 L 26 310 L 36 310 L 45 312 L 47 312 L 47 312" stroke="black" fill="none" /></svg>