<svg height="568" width="405" version="1.1" xmlns="http://www.w3.org/2000/svg"> <path d="M 104 45 L 106 44 L 106 44 L 109 43 L 113 42 L 119 41 L 126 41 L 135 41 L 149 44 L 158 46 L 166 48 L 178 52 L 185 56 L 192 60 L 199 65 L 205 71 L 209 77 L 213 83 L 216 92 L 218 97 L 219 101 L 220 104 L 220 105 L 221 106 L 220 106 L 219 107 L 218 108 L 217 109 L 217 109 L 216 109 L 216 109 L 216 110 L 216 110 L 216 110 L 216 110 L 216 110 L 215 110 L 215 110 L 215 110 L 215 111 L 215 111 L 215 111 L 215 111 L 215 111 L 214 111 L 213 112 L 212 113 L 211 113 L 211 114 L 210 114 L 210 114 L 209 114 L 208 115 L 208 115 L 207 115 L 207 115 L 206 116 L 205 116 L 204 116 L 202 117 L 201 117 L 200 118 L 198 119 L 197 120 L 196 120 L 196 120 L 195 121 L 194 121 L 192 122 L 192 122 L 190 123 L 189 124 L 185 124 L 184 125 L 182 126 L 180 126 L 178 127 L 176 128 L 174 128 L 170 129 L 168 130 L 165 131 L 161 132 L 159 133 L 156 133 L 153 134 L 150 135 L 147 136 L 144 137 L 139 139 L 136 140 L 134 141 L 130 142 L 129 142 L 128 142 L 128 142 L 128 142 L 127 142 L 126 142 L 125 142 L 125 142 L 125 142 L 126 142 L 127 142 L 129 141 L 131 141 L 134 140 L 137 140 L 140 139 L 144 138 L 149 138 L 155 138 L 161 138 L 169 138 L 175 139 L 181 138 L 189 138 L 195 140 L 199 141 L 203 143 L 208 145 L 213 147 L 218 150 L 225 155 L 229 159 L 233 163 L 240 169 L 244 173 L 247 178 L 249 181 L 251 184 L 252 187 L 253 189 L 255 194 L 256 197 L 254 201 L 252 203 L 249 206 L 245 208 L 240 210 L 234 213 L 229 216 L 221 221 L 214 225 L 206 228 L 194 233 L 186 235 L 180 236 L 174 237 L 168 238 L 161 239 L 154 239 L 146 238 L 142 238 L 137 237 L 130 236 L 124 234 L 117 231 L 110 228 L 105 226 L 101 225 L 98 225 L 95 225 L 94 224 L 92 223 L 92 222 L 92 222 L 92 222 L 91 222 L 91 221 L 91 221 M 126 43 L 126 43 L 118 42 L 113 42 L 108 43 L 103 45 L 95 48 L 90 50 L 85 53 L 77 56 L 72 59 L 68 62 L 63 67 L 58 72 L 53 77 L 49 82 L 43 91 L 40 97 L 35 107 L 31 115 L 28 122 L 26 130 L 26 137 L 27 145 L 29 153 L 32 167 L 34 175 L 37 182 L 40 192 L 43 199 L 47 204 L 49 209 L 52 212 L 55 214 L 61 216 L 70 218 L 75 220 L 80 222 L 87 223 L 90 224 L 94 225 L 97 226 L 100 226 L 104 226 L 107 225 L 111 223 L 111 223 L 110 223 L 110 223 M 95 231 L 95 231 L 93 231 L 88 230 L 86 231 L 82 233 L 79 237 L 74 243 L 71 248 L 69 252 L 69 252 M 101 228 L 101 228 L 100 229 L 99 232 L 96 236 L 93 243 L 89 253 L 86 258 L 86 258 M 273 109 L 271 110 L 267 115 L 263 120 L 263 125 L 263 129 L 267 133 L 271 135 L 279 136 L 284 134 L 288 132 L 292 126 L 293 121 L 292 118 L 290 115 L 287 112 L 283 110 L 278 109 L 274 110 L 272 111 L 272 111 L 272 111 M 288 118 L 288 118 L 289 119 L 287 122 L 285 123 L 284 124 L 283 123 L 282 121 L 281 119 L 281 117 L 281 115 L 281 115 L 281 117 L 281 119 L 281 123 L 282 125 L 283 125 L 284 125 L 285 125 L 286 123 L 286 120 L 286 117 L 284 117 L 282 116 L 280 118 L 279 119 L 280 122 L 281 124 L 284 126 L 286 126 L 287 126 L 288 123 L 289 121 L 289 121 M 283 109 L 283 109 L 284 108 L 286 106 L 292 100 L 296 96 L 299 94 L 299 94 M 291 115 L 291 115 L 295 113 L 299 110 L 303 109 L 305 110 L 306 111 L 306 112 L 306 112 M 295 122 L 295 122 L 296 123 L 301 124 L 304 123 L 306 123 L 306 123 M 293 135 L 294 136 L 298 139 L 302 141 L 302 141 M 239 228 L 240 229 L 240 232 L 240 235 L 241 239 L 242 243 L 242 248 L 242 249 L 243 249 L 244 248 L 246 247 L 247 246 L 248 245 L 248 245 L 248 245 M 261 229 L 260 230 L 258 231 L 256 233 L 255 236 L 255 240 L 257 243 L 259 244 L 261 244 L 262 242 L 263 240 L 263 236 L 262 232 L 261 231 L 261 231 L 261 231 L 262 233 L 263 235 L 266 237 L 268 238 L 271 238 L 274 237 L 275 232 L 275 227 L 274 222 L 273 217 L 273 216 L 273 217 L 273 220 L 273 225 L 275 230 L 277 234 L 280 238 L 281 238 L 281 238 M 267 227 L 270 226 L 273 225 L 276 224 L 280 220 L 280 220 M 290 224 L 290 226 L 293 226 L 296 224 L 297 223 L 298 222 L 297 220 L 296 219 L 294 219 L 293 220 L 291 223 L 291 226 L 292 230 L 294 233 L 297 235 L 300 235 L 303 232 L 305 226 L 304 223 L 303 220 L 302 218 L 304 217 L 307 217 L 310 217 L 312 217 L 314 217 L 315 218 L 315 219 L 314 220 L 313 222 L 313 224 L 315 225 L 318 225 L 321 225 L 325 223 L 330 220 L 334 215 L 335 212 L 333 210 L 328 208 L 326 208 L 324 210 L 322 213 L 322 216 L 324 219 L 327 221 L 329 221 L 331 221 L 333 220 L 334 217 L 334 213 L 333 211 L 331 210 L 330 210 L 330 212 L 331 215 L 333 218 L 337 219 L 340 219 L 343 216 L 344 210 L 344 204 L 343 198 L 341 193 L 339 191 L 338 192 L 337 195 L 341 209 L 345 215 L 347 217 L 353 220 L 358 218 L 358 218 M 287 269 L 287 263 L 285 258 L 283 257 L 281 258 L 279 260 L 279 263 L 282 266 L 285 268 L 289 269 L 290 271 L 291 273 L 290 275 L 289 278 L 289 278 L 290 276 L 291 273 L 293 269 L 293 269 M 303 254 L 303 254 L 302 253 L 299 255 L 297 259 L 298 263 L 300 266 L 303 268 L 305 268 L 306 266 L 306 263 L 306 260 L 304 256 L 303 254 L 303 254 L 303 256 L 306 259 L 308 261 L 311 261 L 315 261 L 318 259 L 319 256 L 319 253 L 317 250 L 315 250 L 313 250 L 313 254 L 314 257 L 316 259 L 318 261 L 319 261 L 319 259 L 319 257 L 318 252 L 318 251 L 318 251 L 320 258 L 323 266 L 328 285 L 329 292 L 329 298 L 326 301 L 321 302 L 318 299 L 316 294 L 315 284 L 316 277 L 319 271 L 323 266 L 326 261 L 328 258 L 329 255 L 328 253 L 328 253 L 328 254 L 328 257 L 330 260 L 331 263 L 333 265 L 332 265 L 331 264 L 331 264 M 323 237 L 323 237 L 326 236 L 327 236 L 327 236 M 335 232 L 335 234 L 336 239 L 339 245 L 341 251 L 344 258 L 344 261 L 344 261 L 344 261 M 333 249 L 333 249 L 336 246 L 339 245 L 343 244 L 347 243 L 348 241 L 348 241 M 348 232 L 348 232 L 347 231 L 346 234 L 348 239 L 350 247 L 353 256 L 353 260 L 353 260 M 340 243 L 340 243 L 346 242 L 351 240 L 351 240 M 364 236 L 361 237 L 358 239 L 357 243 L 357 247 L 359 251 L 362 253 L 365 255 L 369 254 L 370 252 L 370 248 L 369 241 L 368 237 L 367 236 L 368 240 L 370 243 L 373 247 L 377 250 L 379 250 L 381 247 L 381 241 L 380 235 L 379 228 L 378 223 L 377 221 L 376 222 L 376 226 L 378 236 L 382 242 L 389 248 L 391 248 L 392 247 L 392 247 M 194 354 L 194 354 L 193 354 L 190 354 L 188 353 L 186 353 L 184 353 L 181 353 L 178 354 L 170 354 L 158 356 L 155 358 L 153 359 L 147 362 L 143 364 L 139 366 L 133 370 L 129 372 L 126 374 L 120 379 L 116 382 L 108 390 L 104 394 L 97 403 L 92 410 L 87 423 L 85 428 L 82 440 L 82 447 L 80 461 L 79 475 L 83 488 L 88 499 L 91 504 L 95 512 L 100 523 L 106 532 L 119 541 L 123 542 L 128 544 L 137 548 L 144 549 L 154 551 L 161 552 L 168 552 L 176 553 L 184 553 L 188 553 L 194 552 L 196 552 L 198 551 L 199 551 L 201 551 L 202 551 L 202 551 L 202 551 L 203 551 L 203 551 L 203 551 L 203 550 L 203 550 L 202 550 L 199 549 L 196 548 L 195 546 L 191 543 L 185 538 L 179 528 L 176 519 L 174 505 L 173 501 L 171 489 L 169 476 L 171 460 L 173 453 L 177 443 L 181 436 L 186 426 L 189 423 L 195 417 L 199 415 L 205 411 L 208 409 L 218 405 L 227 403 L 240 401 L 243 400 L 249 399 L 251 399 L 256 398 L 258 397 L 259 392 L 259 389 L 257 382 L 255 377 L 249 367 L 231 357 L 220 353 L 212 351 L 207 351 L 194 354 L 189 356 L 174 362 L 172 362 L 169 363 L 169 363 L 169 363 M 242 405 L 240 406 L 233 406 L 229 406 L 219 411 L 210 418 L 200 427 L 196 432 L 189 455 L 184 475 L 183 487 L 185 506 L 187 514 L 191 525 L 192 527 L 193 529 L 194 529 L 197 531 L 199 532 L 197 533 L 197 533 L 195 533 L 195 536 L 195 536 L 195 536 L 195 535 L 195 534 L 195 534 M 282 406 L 282 406 L 279 406 L 274 405 L 267 410 L 265 423 L 271 437 L 277 444 L 284 444 L 286 443 L 288 441 L 291 428 L 284 415 L 275 410 L 274 411 L 274 412 L 274 412 M 280 418 L 279 418 L 278 419 L 277 420 L 278 425 L 286 426 L 286 419 L 284 415 L 280 412 L 277 422 L 279 426 L 285 431 L 286 429 L 283 418 L 282 417 L 281 419 L 282 420 L 282 420 L 282 420 M 284 413 L 284 413 L 285 410 L 287 408 L 298 400 L 300 396 L 300 396 M 289 423 L 289 423 L 294 420 L 298 418 L 301 417 L 301 416 L 301 416 M 290 430 L 290 430 L 291 430 L 297 428 L 304 427 L 305 426 L 305 426 M 294 438 L 294 438 L 296 438 L 299 438 L 302 439 L 308 442 L 308 442 M 267 491 L 267 491 L 264 490 L 261 490 L 259 498 L 265 505 L 275 510 L 273 515 L 270 517 L 267 519 L 268 517 L 278 509 L 289 499 L 287 498 L 280 504 L 287 510 L 292 503 L 289 496 L 288 497 L 296 504 L 304 500 L 305 497 L 303 491 L 301 491 L 300 497 L 303 503 L 306 503 L 306 493 L 310 502 L 314 520 L 316 533 L 310 538 L 304 524 L 309 514 L 316 501 L 318 492 L 319 492 L 321 498 L 323 504 L 322 503 L 322 503 M 311 476 L 311 476 L 311 476 L 313 477 L 315 477 L 315 477 M 324 473 L 324 473 L 326 475 L 327 477 L 329 483 L 335 501 L 335 502 L 335 502 M 326 489 L 328 488 L 332 487 L 336 487 L 338 484 L 338 484 M 340 476 L 339 475 L 339 474 L 339 475 L 343 485 L 350 504 L 349 505 L 349 505 M 334 486 L 334 486 L 334 485 L 338 484 L 351 481 L 351 481 M 358 478 L 358 477 L 355 478 L 354 481 L 359 492 L 364 491 L 363 477 L 362 476 L 370 485 L 377 481 L 373 463 L 370 453 L 370 461 L 377 481 L 389 481 L 389 481 M 294 553 L 294 553 L 294 554 L 297 562 L 299 568 L 299 566 L 300 554 L 304 553 L 308 563 L 308 565 L 308 559 L 313 550 L 316 553 L 323 562 L 328 557 L 329 549 L 328 545 L 329 555 L 338 558 L 346 551 L 346 541 L 342 543 L 342 548 L 343 551 L 350 553 L 353 551 L 354 545 L 351 528 L 348 524 L 354 540 L 358 548 L 361 544 L 362 538 L 363 539 L 366 544 L 370 547 L 370 547 M 364 523 L 364 523 L 365 523 L 367 522 L 369 524 L 369 526 L 366 527 L 366 527 M 379 531 L 377 531 L 373 533 L 373 539 L 377 542 L 378 542 L 382 538 L 383 535 L 383 530 L 383 530 L 385 537 L 387 539 L 392 530 L 390 512 L 388 503 L 390 518 L 401 537 L 405 535 L 405 535" stroke="black" fill="none" /></svg>