<svg height="595" width="378" version="1.1" xmlns="http://www.w3.org/2000/svg"> <path d="M 147 109 L 147 109 L 147 108 L 147 108 L 147 108 L 148 108 L 148 107 L 148 105 L 148 104 L 147 101 L 147 97 L 144 92 L 143 88 L 141 85 L 138 79 L 136 76 L 133 72 L 130 69 L 126 66 L 123 63 L 120 60 L 115 57 L 112 56 L 109 55 L 102 55 L 98 56 L 95 57 L 92 59 L 89 61 L 86 63 L 83 66 L 78 71 L 75 75 L 70 81 L 67 87 L 64 93 L 61 98 L 58 105 L 55 112 L 53 119 L 51 130 L 50 138 L 50 145 L 49 155 L 49 162 L 50 169 L 50 176 L 51 183 L 52 191 L 52 199 L 52 210 L 52 218 L 54 232 L 55 241 L 58 250 L 60 257 L 64 264 L 68 272 L 73 280 L 81 290 L 87 295 L 92 299 L 99 303 L 105 304 L 111 304 L 116 303 L 120 301 L 124 298 L 127 295 L 133 291 L 135 288 L 138 284 L 141 277 L 142 272 L 143 268 L 144 263 L 144 258 L 145 253 L 145 248 L 146 242 L 146 239 L 146 237 L 146 236 L 146 236 L 146 236 L 146 236 L 146 236 L 146 236 L 146 236 L 146 236 L 146 236 L 146 236 L 146 236 L 147 237 L 147 237 L 147 237 L 147 237 L 147 237 L 147 238 L 148 238 L 148 238 L 148 238 L 148 238 L 148 239 L 148 239 L 148 239 L 148 239 L 148 239 L 148 240 L 148 240 L 149 240 L 149 240 L 149 239 L 149 238 L 149 237 L 149 236 L 149 234 L 149 232 L 149 230 L 149 228 L 149 227 L 150 225 L 150 225 L 150 225 L 150 225 L 150 224 L 150 223 L 150 223 L 150 223 L 150 223 L 150 223 L 149 223 L 149 224 L 149 225 L 148 227 L 147 228 L 147 230 L 147 233 L 147 235 L 148 239 L 149 242 L 150 246 L 152 251 L 153 256 L 156 262 L 157 265 L 159 268 L 162 273 L 165 276 L 168 279 L 172 281 L 175 283 L 179 284 L 183 286 L 189 287 L 193 287 L 200 287 L 205 287 L 210 286 L 215 284 L 219 282 L 223 279 L 227 276 L 234 271 L 239 267 L 243 264 L 248 259 L 251 256 L 253 252 L 256 248 L 259 242 L 261 237 L 262 231 L 263 222 L 265 215 L 265 206 L 266 190 L 266 180 L 266 171 L 266 164 L 266 156 L 266 148 L 265 138 L 264 124 L 263 117 L 261 107 L 260 100 L 258 93 L 256 86 L 254 81 L 251 76 L 248 71 L 243 65 L 240 61 L 238 58 L 234 56 L 231 55 L 229 55 L 227 54 L 226 54 L 224 54 L 222 54 L 218 55 L 216 55 L 214 55 L 211 56 L 210 57 L 208 57 L 206 57 L 205 58 L 204 58 L 202 60 L 199 61 L 197 62 L 193 64 L 190 66 L 187 68 L 184 70 L 182 72 L 179 74 L 177 76 L 172 82 L 169 87 L 166 90 L 162 95 L 160 98 L 158 101 L 156 104 L 155 109 L 153 113 L 153 115 L 154 116 L 154 116 L 154 115 L 154 114 L 154 114 M 108 161 L 110 161 L 117 171 L 120 179 L 123 194 L 124 203 L 124 211 L 123 217 L 121 221 L 119 222 L 116 223 L 116 223 M 180 155 L 180 154 L 178 154 L 173 159 L 171 164 L 170 172 L 172 185 L 176 193 L 182 199 L 188 202 L 195 203 L 198 203 L 198 203 M 166 314 L 166 313 L 166 313 L 166 316 L 165 320 L 164 326 L 163 333 L 162 336 L 162 337 L 163 334 L 164 328 L 165 322 L 167 316 L 168 310 L 170 307 L 172 305 L 173 306 L 173 310 L 176 320 L 179 326 L 182 330 L 184 332 L 184 332 L 184 332 M 162 331 L 162 331 L 165 331 L 169 330 L 174 329 L 175 327 L 175 327 M 190 318 L 191 317 L 193 318 L 197 322 L 200 324 L 202 327 L 204 327 L 204 327 L 204 327 M 200 313 L 199 314 L 198 318 L 197 322 L 196 328 L 195 332 L 194 333 L 194 333 M 212 315 L 212 314 L 213 316 L 216 321 L 217 325 L 217 329 L 217 331 L 216 331 L 216 331 M 212 304 L 212 304 L 211 303 L 211 303 L 213 303 L 213 303 L 213 304 L 212 304 L 212 303 L 212 303 M 234 310 L 234 310 L 232 309 L 230 309 L 229 310 L 226 313 L 225 317 L 225 320 L 227 323 L 229 324 L 231 324 L 233 322 L 235 319 L 235 316 L 235 312 L 235 309 L 234 309 L 234 309 L 235 311 L 236 314 L 238 317 L 240 319 L 241 320 L 243 319 L 245 316 L 247 310 L 246 304 L 245 293 L 244 286 L 244 282 L 243 282 L 243 285 L 243 291 L 243 299 L 246 308 L 249 313 L 252 315 L 257 316 L 259 315 L 259 314 L 259 314 M 162 363 L 166 362 L 188 353 L 205 346 L 225 340 L 244 337 L 262 335 L 277 333 L 289 331 L 297 329 L 298 329 L 298 328 L 295 327 L 294 327 L 294 327 M 139 422 L 135 422 L 128 422 L 121 425 L 113 429 L 104 433 L 94 440 L 82 452 L 78 460 L 77 468 L 79 480 L 86 486 L 95 489 L 105 491 L 116 490 L 131 487 L 133 486 L 123 487 L 100 494 L 92 500 L 84 509 L 78 518 L 76 535 L 90 551 L 100 556 L 144 558 L 154 556 L 160 553 L 162 551 L 162 551 M 136 423 L 136 423 L 143 423 L 149 424 L 154 426 L 162 428 L 162 428 L 162 428 M 164 555 L 164 555 L 166 554 L 169 552 L 172 549 L 177 543 L 179 541 L 180 538 L 180 536 L 180 535 L 180 535 M 199 437 L 199 434 L 199 432 L 199 431 L 200 429 L 208 425 L 214 422 L 231 415 L 237 415 L 247 417 L 255 420 L 261 424 L 268 434 L 269 443 L 269 444 L 269 444 L 269 444 L 269 444 L 269 444 L 268 444 L 268 444 L 267 445 L 264 448 L 261 451 L 257 453 L 255 454 L 253 454 L 248 456 L 247 456 L 246 457 L 246 457 L 245 458 L 243 461 L 243 463 L 241 464 L 237 467 L 234 469 L 229 471 L 229 471 L 231 471 L 233 470 L 235 469 L 249 466 L 256 465 L 260 466 L 274 476 L 276 484 L 277 492 L 278 512 L 277 518 L 273 526 L 263 533 L 256 535 L 249 536 L 233 539 L 225 538 L 221 537 L 217 534 L 215 533 L 215 530 L 217 527 L 217 524 L 217 524 M 256 557 L 255 557 L 251 559 L 249 561 L 249 565 L 251 575 L 259 582 L 264 578 L 264 578 M 267 564 L 267 564 L 267 565 L 269 573 L 275 575 L 275 570 L 271 565 L 270 565 L 270 565 L 270 565 M 281 561 L 282 561 L 284 561 L 286 565 L 288 570 L 288 571 L 288 572 L 287 568 L 289 563 L 291 559 L 293 558 L 293 558 M 302 559 L 302 559 L 301 559 L 300 559 L 299 561 L 299 564 L 302 571 L 306 573 L 308 571 L 306 562 L 303 558 L 303 558 L 303 558 M 315 555 L 315 555 L 316 555 L 317 558 L 319 562 L 320 565 L 320 569 L 320 558 L 322 552 L 323 552 L 325 552 L 328 561 L 330 567 L 330 567 M 339 550 L 338 550 L 336 555 L 337 558 L 340 562 L 342 562 L 345 559 L 345 556 L 345 556 M 345 553 L 345 553 L 344 553 L 346 555 L 349 556 L 353 556 L 358 552 L 359 545 L 356 530 L 354 526 L 353 527 L 355 541 L 357 549 L 367 558 L 367 558 M 268 595 L 268 595 L 269 595 L 277 591 L 319 576 L 358 569 L 369 569 L 375 568 L 378 567 L 377 566 L 376 567 L 376 567" stroke="black" fill="none" /></svg>